# xmcd CD database file
#
# Track frame offsets:
#	150
#	14367
#	27277
#	38502
#	52382
#	66130
#	80277
#	95015
#	109202
#	121057
#	134050
#	148212
#
# Disc length: 2155 seconds
#
# Revision: 0
# Processed by: cddbd v1.4PL0 Copyright (c) Steve Scherf et al.
# Submitted via: CDex 1.51
#
DISCID=ab08690c
DTITLE=Billie Holiday - Nice if you can get it
DYEAR=1900
DGENRE=Jazz
TTITLE0=This years kisses (berlin)
TTITLE1=Why was I born
TTITLE2=How could you
TTITLE3=Moaning low
TTITLE4=They cant take that away from me
TTITLE5=Ill get by
TTITLE6=Your And Mine
TTITLE7=Mean to me
TTITLE8=Me myself and i
TTITLE9=A Sailboat In the moonlight
TTITLE10=Nice work if you can get it
TTITLE11=My Man
EXTD=
EXTT0=
EXTT1=
EXTT2=
EXTT3=
EXTT4=
EXTT5=
EXTT6=
EXTT7=
EXTT8=
EXTT9=
EXTT10=
EXTT11=
PLAYORDER=
